<?xml version="1.0" standalone="no"?>
<!DOCTYPE svg PUBLIC "-//W3C//DTD SVG 20010904//EN"
 "http://www.w3.org/TR/2001/REC-SVG-20010904/DTD/svg10.dtd">
<svg version="1.0" xmlns="http://www.w3.org/2000/svg"
 width="576.000000pt" height="576.000000pt" viewBox="0 0 576.000000 576.000000"
 preserveAspectRatio="xMidYMid meet">
<metadata>
Created by potrace 1.14, written by Peter Selinger 2001-2017
</metadata>
<g transform="translate(0.000000,576.000000) scale(0.100000,-0.100000)"
fill="#000000" stroke="none">
<path d="M2814 5109 c-86 -25 -358 -387 -533 -707 -145 -267 -277 -598 -356
-895 l-24 -88 37 -22 c93 -54 307 -203 407 -284 134 -107 354 -326 455 -450
41 -51 77 -93 80 -93 3 0 40 42 80 93 102 126 322 344 455 451 100 80 315 229
407 283 l37 22 -25 93 c-147 537 -419 1077 -729 1447 -40 47 -86 98 -102 114
-47 43 -117 57 -189 36z"/>
<path d="M135 3509 c-95 -36 -135 -106 -135 -236 0 -171 35 -421 85 -623 63
-250 212 -587 352 -798 206 -308 464 -566 768 -770 205 -137 524 -281 770
-348 287 -78 509 -98 1001 -91 390 5 456 11 694 63 285 63 646 216 885 376
305 204 562 462 768 770 140 211 289 548 352 798 50 202 85 452 85 623 0 135
-42 204 -145 237 -58 19 -382 7 -570 -20 -831 -122 -1566 -588 -2024 -1285
-47 -72 -97 -152 -111 -178 -14 -26 -27 -47 -30 -47 -3 0 -16 21 -30 47 -14
26 -64 106 -111 178 -458 697 -1192 1163 -2024 1285 -176 25 -531 37 -580 19z"/>
</g>
</svg>
